<svg xmlns="http://www.w3.org/2000/svg" width="61" height="11" viewBox="0 0 61 11"><g><g><path fill="#3b3a3a" d="M7.932 8.533a.422.422 0 0 1-.112.222c-.722.89-1.723 1.279-2.891 1.279-1.223 0-2.224-.445-3.003-1.279C1.203 7.921.814 6.92.814 5.697c0-1.223.39-2.224 1.112-3.058.779-.89 1.724-1.335 2.947-1.335 1.28 0 2.28.39 3.003 1.168.056.11.111.167.111.222 0 .056-.11.334-.389.834-.278.5-.445.779-.5.834-.056.056-.056.056-.112.056 0 0-.111-.056-.278-.222-.222-.167-.444-.334-.611-.445a2.18 2.18 0 0 0-1.001-.223c-.556 0-1.057.223-1.39.668-.334.389-.5.89-.5 1.5 0 .612.166 1.113.5 1.502.333.445.834.667 1.39.667a2.18 2.18 0 0 0 1-.222c.223-.111.39-.222.612-.39.167-.166.278-.222.278-.222.056 0 .056 0 .112.056.055.056.222.334.5.723.167.445.334.667.334.723z"/></g><g><path fill="#3b3a3a" d="M13.66 7.143c-.39.444-.89.667-1.447.667-.611 0-1.056-.167-1.446-.612-.389-.39-.556-.89-.556-1.501 0-.556.167-1.057.556-1.501.39-.445.89-.668 1.446-.668.612 0 1.057.223 1.446.668.39.389.556.89.556 1.5 0 .557-.222 1.057-.556 1.447zm1.611-4.56c-.834-.834-1.834-1.279-3.058-1.279-1.223 0-2.224.445-3.058 1.279-.779.834-1.168 1.89-1.168 3.114 0 1.279.39 2.28 1.168 3.114.834.834 1.835 1.279 3.058 1.279 1.224 0 2.224-.445 3.058-1.28.779-.833 1.168-1.89 1.168-3.113s-.39-2.224-1.168-3.114z"/></g><g><path fill="#3b3a3a" d="M22.445 5.641c0 .723-.167 1.28-.556 1.78-.39.444-.946.667-1.613.667-.612 0-.945-.111-.945-.278V6.753 5.697 4.64 3.584c0-.167.278-.223.89-.223.667 0 1.223.223 1.612.668.39.389.612.945.612 1.612zm1.89-1.835c-.278-.667-.667-1.167-1.168-1.501-.556-.39-1.278-.612-2.224-.723-.389-.056-1.167-.056-2.39-.056-.668 0-1.113 0-1.39.056-.112.056-.168.111-.168.167 0 .445 0 1.168.056 2.057.056.946.056 1.613.056 2.058 0 .444 0 1.056-.056 1.946-.056.834-.056 1.501-.056 1.946 0 .056.056.111.167.111h3.67c1.168-.055 2.113-.445 2.78-1.223a4.454 4.454 0 0 0 1.113-3.003c0-.611-.167-1.223-.39-1.835z"/></g><g><path fill="#3b3a3a" d="M31.341 8.032c0 .167-.055.5-.11.946-.056.5-.112.778-.168.89-.055.055-.11.11-.222.11h-.167c-.278-.055-1.112-.055-2.558-.055h-2.724c-.112 0-.223-.056-.223-.167 0-.445 0-1.112.056-2.002.055-.89.055-1.557.055-2.002 0-.444 0-1.278-.055-2.502 0-.333-.056-.778-.056-1.39v-.055c0-.112.056-.112.167-.112H30.674c.223 0 .334.056.334.223 0 .11.055.389.111.834.056.445.056.723.056.834a.12.12 0 0 1-.112.111h-.11c-1.057-.111-2.003-.111-2.837-.111-.222 0-.333.055-.389.167 0 .055-.055.222-.055.445 0 .278.055.444.11.556.056.055.223.11.39.11h.5c.5 0 1.001 0 1.502-.055.055 0 .167 0 .333-.055h.334c.111 0 .167.055.167.11 0-.055-.056.223-.111.89-.056.334-.056.612-.056.946 0 .055-.056.11-.167.11 0 0-.167 0-.556-.055-.222 0-.723-.055-1.557-.055h-.611c-.167 0-.278.055-.278.11v.39c0 .278 0 .5.055.556.056.167.334.223.779.278h.89c.222 0 .5 0 .944-.055.39-.056.724-.056.946-.056 0-.111.055-.056.055.111z"/></g><g><path fill="#3b3a3a" d="M47.244 9.756c0 .056 0 .111-.055.167 0 0-.056 0-.167.055-.222 0-.556.056-1 .056-.613 0-.946 0-1.057-.056-.112 0-.167-.055-.167-.166 0-.278 0-.779.055-1.335 0-.612.056-1.056.056-1.334 0-.167-.056-.223-.111-.278-.111-.056-.612-.056-1.39-.056-.779 0-1.28 0-1.39.056-.112 0-.112.11-.112.278 0 .278 0 .722.056 1.334v1.335c0 .11-.056.166-.167.222-.111 0-.5.056-1.112.056-.5 0-.834 0-1.001-.056-.111 0-.167-.056-.167-.167 0-.39 0-1.056.056-1.835.055-.834.055-1.446.055-1.89 0-.445 0-1.112-.055-2.002-.056-.89-.056-1.557-.056-2.002 0-.111.056-.111.111-.111h2.225c.055 0 .11.055.11.111 0 .278 0 .723-.055 1.279-.055.556-.055 1-.055 1.279 0 .111.055.222.11.222.112.056.613.056 1.502.056.834 0 1.28 0 1.446-.056.111 0 .111-.11.111-.222 0-.278 0-.667-.055-1.223 0-.556-.056-.946-.056-1.224 0-.11.056-.167.167-.167h2.001c.112 0 .167.056.167.112 0 .445 0 1.112-.055 2.001-.056.89-.056 1.557-.056 2.002 0 .39 0 1.057.056 1.89.055.668.055 1.28.055 1.669z"/></g><g><path fill="#3b3a3a" d="M53.862 8.143c0 .167-.056.445-.112.89-.055.5-.11.779-.166.834-.056.056-.112.111-.167.111h-.167c-.278-.055-1.112-.055-2.447-.055h-2.669c-.111 0-.167-.056-.167-.167 0-.445 0-1.057.056-1.946.056-.834.056-1.502.056-1.946 0-.445 0-1.224-.056-2.447 0-.278-.056-.778-.056-1.39V1.97c0-.11.056-.11.167-.11h5.116c.222 0 .334.055.334.221 0 .112.055.334.11.779.056.445.056.723.056.778 0 .056-.055.112-.111.112h-.111c-1.001-.112-1.946-.112-2.78-.112-.223 0-.334.056-.39.167 0 .056-.055.167-.055.445s.055.445.111.5c.056.056.167.112.39.112h.5c.5 0 1 0 1.446-.056.055 0 .166 0 .333-.056h.334c.111 0 .166.056.166.112 0-.056-.055.222-.11.89-.056.277-.056.611-.056.89 0 .055-.056.11-.167.11 0 0-.167 0-.5-.055-.223 0-.724-.056-1.502-.056h-.611c-.167 0-.223.056-.279.111v.334c0 .278 0 .5.056.556.056.167.334.222.723.278h.834c.222 0 .5 0 .89-.056.389-.055.722-.055.89-.055.055.167.11.222.11.333z"/></g><g><path fill="#3b3a3a" d="M60.2 3.806c0 .056-.055.056-.11.056-.279 0-.723 0-1.335-.056-.612-.055-1.001-.055-1.335-.055-.389 0-.556 0-.667.055-.167.056-.222.223-.222.556 0 .334.11.556.278.612.055 0 .222.056.333.056.278 0 .667 0 1.168-.056.556-.056.945-.056 1.168-.056.11 0 .166.334.166 1.001 0 .556 0 .946-.055 1.001 0 .056-.056.111-.167.111.056 0-.056 0-.39-.055-.388-.056-1.056-.056-1.89-.056h-.445c-.222.056-.278.111-.278.223 0 .556 0 1.167.056 1.89.055.612.055.89.055.834 0 .111-.11.167-.389.167h-.5c-.723 0-1.168 0-1.39-.056-.112 0-.167-.11-.167-.166 0-.445 0-1.057.055-1.89.056-.835.056-1.502.056-1.891 0-.501 0-1.113-.056-1.891-.055-1.168-.11-1.78-.11-1.89v-.056c0-.111.055-.167.166-.167h2.558c.333 0 .778 0 1.39-.056.612-.055 1.057-.055 1.39-.055.167 0 .278.055.334.222v.723c0 .111.055.222.055.5.279.167.279.334.279.445z"/></g><g><path fill="#3b3a3a" d="M40.35 7.087c.055.056 0 .167 0 .334-.334 1.223-1.113 2.113-2.28 2.669-1.224.556-2.391.611-3.56.11-1.111-.5-1.945-1.334-2.501-2.613a5.125 5.125 0 0 1-.278-3.614c.389-1.223 1.112-2.113 2.335-2.669 1.28-.612 2.447-.667 3.503-.167.112.056.167.111.223.167.055.056 0 .445-.056 1.057-.055.611-.111.945-.167 1.056 0 .056-.055.056-.111.111 0 0-.167 0-.389-.111a2.232 2.232 0 0 0-.834-.167c-.39 0-.723.056-1.057.223-.556.278-.945.722-1.112 1.279-.111.556-.056 1.112.167 1.723.278.612.667 1.057 1.168 1.335.556.278 1.112.278 1.668.055.333-.166.612-.389.89-.667.166-.167.278-.445.444-.723l.167-.333h.167c.111.055.39.222.834.5.5.223.779.445.779.445z"/></g></g></svg>