<svg xmlns="http://www.w3.org/2000/svg" width="8" height="17" viewBox="0 0 8 17"><g><g opacity=".8"><g opacity=".8"><path fill="#34404b" d="M.882 13.426c-.115-.008-.194.025-.238.099-.04.035-.046.112-.051.188l-.022.307c.012.385.067.697.13.893.063.197.132.317.206.361l.018-.268.02-.268.01-.153.01-.153c.014-.192-.008-.424.002-.577a.559.559 0 0 0-.022-.232s-.008.114.022.232c.028.156.015.347.037.58-.014.19.009.423-.002.576l-.013.192-.006.076a1.01 1.01 0 0 0 .254-.328c.046-.112.093-.224.1-.34l.036-.497c-.02-.27-.086-.429-.155-.55-.147-.086-.26-.133-.336-.138z"/></g><g opacity=".8"><path fill="#34404b" d="M3.4 16.487l-.131.221c-.041.036-.082.072-.12.069-.042.036-.08.033-.12.069-.118.03-.198.063-.35.052-.154-.01-.266-.057-.455-.109-.262-.095-.449-.185-.594-.31-.145-.126-.254-.21-.361-.333-.178-.205-.206-.361-.239-.44 0 0 .113.046.299.136.074.044.186.09.298.136.112.047.224.093.375.142.262.095.528.152.716.204.113.046.19.051.227.054l.077.006-.077-.006c-.076-.005-.15-.049-.227-.054-.112-.046-.227-.055-.339-.1-.076-.006-.112-.047-.189-.053-.073-.043-.112-.046-.186-.09-.112-.046-.262-.095-.374-.141a2.643 2.643 0 0 1-.299-.136c-.074-.044-.148-.088-.224-.093a.118.118 0 0 0-.074-.044c.038.003.08-.032.197-.063.08-.033.194-.025.309-.017l.46.033c.076.005.19.013.303.06.115.007.227.054.339.1.15.049.3.098.413.144.112.046.183.128.257.172.148.087.176.243.088.39z"/></g></g><g opacity=".8"><g opacity=".8"><path fill="#34404b" d="M1.73 12.754c-.115-.008-.159.066-.202.14l-.014.191c-.005.077.025.195.055.312.025.194.091.353.119.508.027.156.099.238.129.356.101.199.21.284.246.325 0 0 .008-.115-.02-.271-.027-.156-.052-.35-.077-.544-.024-.194-.088-.39-.115-.547a1.229 1.229 0 0 0 0 0c.033.08.027.156.06.235.033.08.025.194.058.274.025.194.088.39.078.544.027.155.019.27.019.27a.719.719 0 0 0 .177-.334c.003-.038.047-.112.05-.15l.013-.191c.005-.077.01-.153-.022-.233.005-.076-.028-.156-.058-.273-.03-.118-.061-.235-.132-.317-.033-.08-.104-.161-.14-.202a.291.291 0 0 0-.148-.087c.039.002 0 0-.076-.006z"/></g><g opacity=".8"><path fill="#34404b" d="M4.711 15.232c-.002.039-.005.077-.046.112-.003.039-.044.074-.046.113a.463.463 0 0 1-.205.178c-.08.033-.197.063-.315.093-.076-.005-.117.03-.194.025l-.23-.016c-.114-.008-.226-.054-.341-.063-.112-.046-.189-.051-.301-.098a4.189 4.189 0 0 1-.405-.259c-.18-.166-.285-.327-.282-.366 0 0 .112.047.3.098.039.003.115.008.151.05.038.002.115.007.15.048.115.008.227.055.38.065.116.009.269.02.38.066l.345.024.345.024-.345-.024c-.114-.008-.23-.016-.341-.063-.115-.008-.266-.057-.38-.065a12.878 12.878 0 0 1-.682-.163c-.188-.051-.3-.098-.3-.098.04-.035.079-.033.158-.066.08-.033.158-.065.314-.093.039.003.077.005.118-.03.038.002.076.005.117-.03.077.005.156-.028.27-.02.078.005.192.013.31-.017l.344.024c.345.024.572.079.679.201.035.041.063.197.052.35z"/></g></g><g opacity=".8"><g opacity=".8"><path fill="#34404b" d="M2.476 11.928c-.079.033-.158.066-.166.18a.418.418 0 0 0 .025.195c.033.08.063.197.096.276.066.158.131.317.2.437s.137.24.208.322c.143.164.252.249.29.251 0 0 .003-.038-.032-.079a.29.29 0 0 0-.066-.158c-.028-.156-.094-.315-.157-.511-.063-.197-.129-.355-.195-.514a1.99 1.99 0 0 0 0 0c.069.12.132.317.198.475.033.08.063.197.096.276l.099.238c.033.08.03.118.066.159-.003.038.033.079.033.079.04-.036.09-.186.141-.375.008-.115.016-.23-.014-.347-.028-.156-.055-.312-.16-.473a1.047 1.047 0 0 0-.353-.448c-.115-.008-.23-.016-.309.017z"/></g><g opacity=".8"><path fill="#34404b" d="M5.733 13.771a.607.607 0 0 1-.223.446 1.446 1.446 0 0 1-.708.22c-.271.02-.46-.032-.649-.084-.188-.051-.3-.098-.41-.182-.222-.131-.328-.254-.361-.333a484.904 484.904 0 0 0 .306.021c.191.014.421.03.692.01.115.008.27-.02.385-.011.115.008.233-.023.31-.017.076.005.193-.025.232-.022l.076.005-.076-.005c-.039-.003-.156.027-.233.022-.076-.006-.194.025-.309.017-.115-.008-.232.022-.385.011l-.345-.024-.306-.021-.23-.016-.076-.006.122-.107c.042-.035.08-.032.12-.068.042-.036.08-.033.16-.066.237-.099.551-.192 1.054-.234.156-.027.31-.017.424-.009a.555.555 0 0 1 .263.096c.147.087.178.204.167.357z"/></g></g><g opacity=".8"><g opacity=".8"><path fill="#34404b" d="M3.08 10.935c-.042.036-.08.033-.083.071-.04.036-.043.074-.046.113a.646.646 0 0 0 .063.196c.033.08.066.159.135.279.104.161.172.281.28.404a.72.72 0 0 0 .251.249c.145.125.258.171.331.215l-.098-.238c-.069-.12-.17-.32-.236-.478-.104-.16-.209-.322-.277-.442-.036-.041-.069-.12-.107-.123l-.035-.041.035.041.107.123c.068.12.173.281.277.442.104.161.208.323.277.443.068.12.101.2.101.2.003-.04.052-.19.065-.38.006-.077-.025-.195-.09-.353a1.084 1.084 0 0 0-.24-.44c-.139-.202-.284-.328-.396-.374-.159.066-.235.06-.315.093z"/></g><g opacity=".8"><path fill="#34404b" d="M6.496 12.136c.028.156-.021.306-.147.451-.125.145-.325.247-.639.34-.117.03-.232.022-.35.053-.115-.008-.194.024-.268-.02-.191-.013-.303-.059-.418-.067-.225-.093-.334-.177-.408-.22 0 0 .115.007.309-.018.038.003.076.006.156-.027.038.003.117-.03.156-.028.117-.03.232-.022.35-.052.234-.06.47-.121.664-.146.197-.063.314-.094.314-.094s-.117.03-.314.094a5.91 5.91 0 0 0-.664.146c-.233.022-.468.083-.66.07-.193.024-.308.016-.308.016.002-.038.043-.074.123-.107.04-.035.122-.107.243-.175.202-.14.519-.272.989-.393.314-.093.508-.118.656-.03.118-.03.186.09.216.207z"/></g></g><g opacity=".8"><g opacity=".8"><path fill="#34404b" d="M3.46 9.888c-.082.071-.123.107-.092.224a.29.29 0 0 0 .066.159c.033.08.104.161.175.243.107.123.214.246.323.33.11.085.18.167.293.213.186.09.298.136.337.139l-.036-.041-.107-.123c-.068-.12-.213-.246-.318-.407l-.32-.368c-.11-.085-.143-.164-.143-.164s.074.043.181.166a2.8 2.8 0 0 1 .359.372c.145.125.25.286.318.407.035.04.068.12.107.122l.035.041a1.487 1.487 0 0 0-.014-.347 1.577 1.577 0 0 0-.414-.683c-.18-.166-.328-.253-.443-.261-.148-.088-.225-.093-.307-.022z"/></g><g opacity=".8"><path fill="#34404b" d="M6.961 10.44a.488.488 0 0 1-.07.457c-.041.036-.044.074-.085.11l-.123.107c-.082.07-.202.14-.36.205-.238.099-.432.124-.588.151-.156.028-.309.017-.424.01-.227-.055-.377-.104-.413-.145 0 0 .038.003.08-.033.038.003.117-.03.196-.063.08-.033.197-.063.276-.096.041-.036.118-.03.159-.066.04-.036.117-.03.158-.066.118-.03.238-.099.317-.132.118-.03.2-.101.279-.134.158-.066.279-.134.279-.134s-.12.068-.28.134a2.2 2.2 0 0 0-.278.134c-.117.03-.2.102-.317.132a2.957 2.957 0 0 1-.59.19c-.08.032-.156.027-.197.063-.038-.003-.08.033-.08.033.003-.039.044-.074.088-.148s.126-.145.208-.216c.081-.072.204-.178.325-.247.079-.033.16-.104.24-.137.08-.033.2-.101.279-.134.278-.135.475-.198.626-.149.158-.066.268.019.295.175z"/></g></g><g opacity=".8"><g opacity=".8"><path fill="#34404b" d="M3.655 8.751c-.04.036-.043.074-.046.113l-.008.114c.033.08.14.202.323.33.148.088.257.173.367.257.112.046.224.093.298.136.189.052.304.06.342.063 0 0-.071-.082-.18-.167-.036-.04-.11-.084-.181-.166-.074-.044-.146-.126-.22-.17-.073-.043-.144-.125-.218-.169-.074-.043-.148-.087-.184-.128-.11-.084-.183-.128-.183-.128s.074.044.183.128c.074.044.11.085.184.128.074.044.147.088.219.17.145.125.293.212.402.297.11.085.18.166.18.166l.009-.114c.002-.039.005-.077-.033-.08.002-.038-.033-.079-.03-.117-.033-.08-.105-.161-.173-.281-.071-.082-.178-.205-.326-.292a.929.929 0 0 0-.487-.188c-.077-.006-.156.027-.238.098z"/></g><g opacity=".8"><path fill="#34404b" d="M7.084 8.683c.033.08.069.12.063.197l-.008.115c-.003.038-.005.077-.046.112-.044.074-.087.148-.172.257-.082.072-.167.181-.287.25-.202.14-.36.205-.516.233-.159.066-.274.058-.391.088-.232.022-.38-.065-.418-.068 0 0 .079-.033.24-.137.158-.066.36-.206.522-.31.04-.035.082-.07.16-.104l.124-.107c.082-.07.16-.104.243-.175.08-.033.123-.107.164-.142.04-.036.079-.033.079-.033s-.038-.003-.08.033a.529.529 0 0 1-.16.104c-.08.033-.162.104-.244.175-.081.071-.2.102-.281.173-.082.071-.2.101-.281.172-.041.036-.08.033-.12.069-.042.036-.08.033-.12.068-.16.066-.241.138-.241.138.005-.077.052-.19.218-.37.04-.035.085-.11.126-.145.04-.036.084-.11.163-.142.044-.074.123-.107.205-.178.082-.072.164-.143.243-.176.243-.175.443-.276.558-.268.079-.033.191.013.257.171z"/></g></g><g opacity=".8"><g opacity=".8"><path fill="#34404b" d="M3.659 7.602c-.041.035-.044.073-.047.112-.002.038-.005.076.03.117a.53.53 0 0 0 .146.126l.222.13c.298.137.522.23.714.243.191.013.306.021.347-.014 0 0-.074-.044-.184-.128-.11-.085-.257-.172-.405-.26l-.221-.13c-.074-.044-.148-.088-.186-.09a.29.29 0 0 0-.15-.05c-.039-.002-.036-.04-.036-.04s.073.043.186.09c.112.046.26.133.448.185.148.087.296.174.408.22.074.044.112.047.148.088.038.003.036.04.036.04.002-.037.005-.076-.03-.117a.84.84 0 0 1-.102-.199l-.107-.123a.531.531 0 0 0-.145-.125 1.2 1.2 0 0 0-.37-.219 1.417 1.417 0 0 0-.492-.111c-.085.11-.167.18-.21.255z"/></g><g opacity=".8"><path fill="#34404b" d="M6.9 6.905c.07.12.138.24.089.39a.713.713 0 0 1-.096.263c-.04.036-.046.113-.087.148-.04.036-.085.11-.125.145a2.802 2.802 0 0 1-.446.315c-.158.066-.276.096-.355.13-.197.063-.347.014-.424.008l.205-.178.45-.391c.164-.143.331-.323.416-.433.122-.107.207-.216.207-.216s-.082.07-.207.216c-.123.107-.29.288-.454.43l-.45.392c-.08.032-.123.106-.161.104l-.041.035c.005-.076.013-.191.144-.413.09-.186.262-.443.554-.769.085-.11.205-.178.287-.249.082-.071.16-.104.237-.099.077.006.186.09.258.172z"/></g></g><g opacity=".8"><g opacity=".8"><path fill="#34404b" d="M3.43 6.474c-.044.073-.05.15.022.232.071.082.184.128.372.18.301.098.57.116.722.127.192.014.274-.058.35-.052 0 0-.074-.044-.186-.09a3.973 3.973 0 0 0-.451-.147c-.074-.044-.15-.05-.225-.093-.076-.005-.15-.049-.188-.051-.112-.047-.19-.052-.19-.052s.078.005.19.052c.076.005.15.049.227.054.076.005.15.049.227.054.15.05.339.1.451.147.077.006.112.047.15.05l.039.002c-.036-.041-.066-.159-.173-.281-.035-.041-.074-.044-.11-.085-.035-.041-.073-.044-.147-.087-.112-.047-.225-.093-.413-.145-.227-.054-.342-.062-.462.007-.08.032-.159.065-.205.178z"/></g><g opacity=".8"><path fill="#34404b" d="M6.441 5.222c.036.041.11.085.105.162.032.079.03.117.063.196a.75.75 0 0 1-.057.266 1.366 1.366 0 0 1-.177.333c-.254.329-.497.504-.697.606-.197.063-.352.09-.39.088 0 0 .002-.039.04-.036a.53.53 0 0 0 .126-.145c.084-.11.25-.29.376-.435.041-.036.082-.071.088-.148.04-.036.043-.074.084-.11.044-.073.126-.145.17-.218l.13-.222s-.046.112-.169.219a.802.802 0 0 1-.169.219 1.17 1.17 0 0 1-.21.254c-.128.184-.292.326-.377.436-.043.073-.084.11-.125.145l-.041.035c.005-.076-.025-.194.029-.42.003-.039.046-.113.05-.151.004-.077.045-.112.089-.186a1.87 1.87 0 0 1 .265-.482c.13-.221.294-.364.414-.432.159-.066.274-.058.383.026z"/></g></g><g opacity=".8"><g opacity=".8"><path fill="#34404b" d="M3.013 5.37c-.005.077-.01.154.063.198.036.04.074.043.148.087.076.005.15.049.265.057l.421.03c.115.007.233-.023.31-.018a.735.735 0 0 0 .316-.131l-.038-.003c-.038-.003-.077-.005-.15-.049-.115-.008-.304-.06-.457-.07-.153-.011-.304-.06-.421-.03l-.192-.013.192.013.46.032c.152.011.344.024.456.07a.466.466 0 0 1 .189.052s.002-.038-.036-.04l-.036-.042a.53.53 0 0 0-.145-.125c-.074-.044-.147-.087-.26-.134-.112-.046-.265-.057-.418-.067a.818.818 0 0 0-.468.082c-.112-.046-.155.028-.199.102z"/></g><g opacity=".8"><path fill="#34404b" d="M5.633 3.67c.112.045.18.166.208.321-.005.077.027.156-.019.268a.62.62 0 0 1-.139.337c-.09.186-.177.334-.3.44-.084.11-.205.178-.287.25a.754.754 0 0 1-.355.129s.003-.039.044-.074c.04-.036.046-.112.087-.148.087-.148.175-.295.265-.481.09-.187.18-.373.229-.523.048-.15.095-.263.095-.263l-.093.225c-.049.15-.139.336-.267.52-.09.186-.218.369-.264.481-.044.074-.085.11-.088.148a.119.119 0 0 0-.043.074c.002-.039-.033-.08-.028-.156.005-.077-.028-.156.019-.268.013-.191.073-.495.253-.867.046-.112.092-.224.174-.296a.837.837 0 0 1 .167-.18c.115.008.23.016.342.062z"/></g></g><g opacity=".8"><g opacity=".8"><path fill="#34404b" d="M2.393 4.373a.21.21 0 0 0 .102.2c.038.003.074.044.15.049l.23.016c.156-.028.27-.02.388-.05.118-.03.197-.063.276-.096.159-.066.24-.137.282-.173l-.039-.002c-.038-.003-.076-.006-.153-.01-.115-.009-.27.019-.424.008-.153-.01-.309.017-.426.047-.118.03-.194.025-.194.025s.076.005.194-.025c.117-.03.27-.02.426-.047.156-.028.31-.017.424-.009l.192.013s.002-.038-.036-.04l-.036-.041a.293.293 0 0 0-.186-.09c-.074-.044-.15-.05-.265-.057a1.44 1.44 0 0 0-.386.011.716.716 0 0 0-.396.165c-.071-.082-.115-.008-.123.107z"/></g><g opacity=".8"><path fill="#34404b" d="M4.616 2.298c.112.046.222.13.252.248.033.08.028.156.06.235-.008.115-.016.23-.062.342-.052.189-.139.337-.185.449-.085.11-.131.221-.213.293-.126.145-.243.175-.322.208 0 0 .002-.038.043-.074.003-.038.047-.112.05-.15.048-.15.1-.34.152-.528.051-.189.103-.378.114-.53.049-.151.057-.266.057-.266s-.008.115-.057.265c-.05.15-.101.34-.153.528-.051.189-.141.375-.19.525-.044.074-.047.112-.05.15-.002.039-.043.075-.043.075-.036-.041-.066-.159-.09-.353-.026-.194-.007-.462.058-.842.046-.112.054-.227.098-.301a.844.844 0 0 1 .128-.183c.123-.107.24-.137.353-.091z"/></g></g><g opacity=".8"><g opacity=".8"><path fill="#34404b" d="M1.616 3.473c-.005.076.069.12.143.164l.076.005.077.005c.077.006.156-.027.235-.06.273-.058.473-.16.634-.263.123-.107.205-.178.207-.217 0 0-.076-.005-.194.025-.117.03-.273.058-.429.086-.156.027-.273.057-.39.088-.118.03-.198.063-.198.063s.08-.033.197-.063c.041-.036.118-.03.197-.064.08-.032.156-.027.197-.063.156-.027.312-.055.39-.088.04.003.118-.03.156-.027l.039.002c-.036-.04-.11-.084-.26-.133l-.268-.019c-.115-.008-.233.022-.391.088-.197.063-.317.132-.36.206-.047.112-.052.188-.058.265z"/></g><g opacity=".8"><path fill="#34404b" d="M3.319 1.13c.115.008.224.093.293.213.033.08.068.12.099.238.033.079.025.194.014.347-.027.383-.158.604-.248.79-.125.145-.207.217-.248.252 0 0 .005-.076.054-.227.01-.153.062-.342.076-.533l.037-.536.016-.23-.016.23-.016.23-.01.153-.011.153c-.014.191-.065.38-.076.533-.005.077-.008.115-.049.15l-.005.077a1.443 1.443 0 0 1-.17-.32c.002-.038-.03-.117-.028-.155.003-.038-.03-.118-.025-.194-.03-.118-.016-.31-.003-.5l.021-.307a.292.292 0 0 1 .09-.186c.01-.153.09-.186.205-.178z"/></g></g><g opacity=".8"><g opacity=".8"><path fill="#34404b" d="M.67 2.714c.065.159.177.205.535.038.24-.137.44-.239.525-.348.123-.107.166-.18.172-.257l-.041.035c-.039-.002-.08.033-.118.03-.117.03-.238.1-.358.168-.08.033-.12.068-.2.101-.079.033-.12.069-.158.066l-.158.066s.079-.033.16-.104c.042-.036.121-.069.162-.104.08-.033.12-.069.2-.102.278-.134.554-.23.554-.23-.038-.003-.15-.05-.265-.057-.077-.006-.153-.011-.27.02-.118.03-.236.06-.356.128-.161.104-.281.173-.325.247-.087.148-.093.224-.06.303z"/></g><g opacity=".8"><path fill="#34404b" d="M1.882.222a.436.436 0 0 1 .298.136c.036.041.069.12.102.2.033.079.063.196.055.311.011.386-.043.613-.092.763a1.45 1.45 0 0 1-.213.293l.006-.077.01-.153c.009-.115-.016-.309-.041-.503a.29.29 0 0 0-.028-.155c.003-.039.005-.077-.03-.118.005-.077-.028-.156-.022-.232C1.899.53 1.905.454 1.905.454s.032.08.022.233c-.006.076.027.155.022.232-.006.077.025.194.02.27.01.386.025.733.025.733-.036-.04-.145-.125-.21-.284-.037-.04-.034-.079-.067-.158-.035-.041-.03-.118-.066-.159A3.981 3.981 0 0 1 1.57.854c-.03-.118-.023-.232-.017-.309.005-.076.01-.153.051-.189a.618.618 0 0 1 .28-.134z"/></g></g></g></svg>