<svg xmlns="http://www.w3.org/2000/svg" width="8" height="18" viewBox="0 0 8 18"><g><g opacity=".8"><g opacity=".8"><path fill="#34404b" d="M7.042 13.864c.114-.006.19-.01.235.103.04.036.044.112.048.188l.016.306c.02.381-.04.69-.107.885-.066.195-.136.314-.17.392 0 0-.007-.115-.053-.265l-.014-.267-.008-.153-.008-.153c-.01-.19-.022-.42.008-.574-.008-.153.025-.269.025-.269s.006.114-.025.27c-.03.154-.02.344-.008.573l.03.573.01.19.004.077c-.04-.036-.158-.107-.245-.293l-.132-.338a1.088 1.088 0 0 1-.026-.496 1.21 1.21 0 0 1 .163-.544c.07-.118.18-.2.257-.205z"/></g><g opacity=".8"><path fill="#34404b" d="M4.604 16.976c.042.075.084.15.164.221.04.037.08.073.119.07.04.037.078.035.118.071.117.032.231.026.346.02.152-.008.264-.052.453-.1.263-.09.448-.215.595-.337.146-.123.255-.243.327-.324.143-.198.21-.355.207-.431 0 0-.112.044-.3.13a2.631 2.631 0 0 1-.298.13c-.113.045-.225.089-.376.135-.263.09-.488.179-.715.229-.112.044-.189.048-.227.05l-.076.004s.038-.002.074-.042a.543.543 0 0 0 .225-.089l.337-.132c.077-.004.113-.044.187-.086.075-.042.113-.044.187-.087.112-.044.225-.088.335-.17.113-.044.225-.089.3-.13l.222-.127a.118.118 0 0 1 .075-.042c-.038.002-.079-.034-.195-.067-.078-.034-.193-.028-.307-.022l-.458.024c-.076.004-.189.048-.303.054-.115.006-.227.05-.34.095-.15.046-.3.092-.411.174-.113.044-.185.125-.221.165-.137.313-.129.466-.044.614z"/></g></g><g opacity=".8"><g opacity=".8"><path fill="#34404b" d="M6.166 13.221c.115-.006.155.03.2.143.001.038.043.112.01.19.003.077-.029.194-.023.308a1.891 1.891 0 0 1-.127.504c-.03.155-.1.273-.134.352-.105.196-.215.279-.251.319 0 0-.006-.115.024-.27-.008-.152.02-.345.048-.538.028-.192.057-.385.087-.54.03-.154.064-.233.064-.233s-.034.079-.064.233c-.034.079-.03.155-.065.233-.034.079-.028.193-.062.271-.028.193-.056.386-.086.54-.03.155-.024.27-.024.27a1.166 1.166 0 0 1-.21-.334c-.001-.038-.043-.112-.045-.15l-.01-.191c-.004-.077-.008-.153.026-.231-.004-.076.03-.155.062-.271.032-.117.064-.233.099-.312a.832.832 0 0 1 .142-.198.29.29 0 0 1 .149-.085l.19-.01z"/></g><g opacity=".8"><path fill="#34404b" d="M3.277 15.745c.002.038.004.076.044.113.002.038.042.074.082.11.042.074.12.108.2.18.08.035.196.067.312.1l.19-.01.23-.013c.114-.006.227-.05.34-.094.112-.044.186-.086.26-.129.149-.084.297-.168.37-.248.182-.163.25-.32.285-.398 0 0-.113.044-.301.092-.038.002-.113.044-.15.046-.04.002-.113.045-.151.047-.113.044-.227.05-.38.058-.114.006-.265.052-.38.058-.114.006-.228.012-.34.056l-.344.018s.114-.006.341-.056c.115-.006.229-.012.341-.056.115-.006.266-.052.38-.058.265-.053.492-.103.679-.189.188-.048.3-.092.3-.092-.04-.036-.078-.034-.156-.069-.078-.034-.194-.066-.31-.098-.04.002-.077.004-.117-.032-.038.002-.077.004-.117-.032-.076.004-.154-.03-.269-.025l-.305.016-.343.018c-.344.018-.569.107-.677.227-.03.155-.06.31-.014.46z"/></g></g><g opacity=".8"><g opacity=".8"><path fill="#34404b" d="M5.396 12.382c.078.034.156.068.162.183l.01.19a.61.61 0 0 1-.098.312c-.066.194-.137.313-.205.47-.07.118-.14.236-.213.317-.106.158-.255.243-.291.283l-.004-.077c-.002-.038.032-.116.028-.192.03-.155.096-.35.165-.506.066-.195.134-.352.164-.506.07-.119.103-.235.103-.235l-.103.235c-.07.118-.136.313-.202.508-.034.078-.067.194-.1.273-.035.078-.07.156-.065.233-.034.078-.032.116-.068.156.002.038-.035.079-.035.079-.04-.037-.084-.149-.134-.376-.006-.114-.012-.229.02-.345.03-.155.06-.31.129-.466.102-.235.21-.356.321-.438.225-.088.337-.132.416-.098z"/></g><g opacity=".8"><path fill="#34404b" d="M2.207 14.309a.614.614 0 0 0 .213.41c.158.106.393.209.736.19.267-.013.458-.023.647-.072.189-.048.301-.092.412-.174.222-.127.293-.245.327-.323l-.076.004-.23.012-.686.036c-.114.006-.267.014-.383-.019-.115.006-.231-.026-.308-.022-.076.004-.192-.028-.23-.026l-.077.004.076-.004c.039-.002.153-.008.231.026a.95.95 0 0 1 .308.022l.381-.02.343-.018.306-.016.228-.012.077-.004c-.04-.036-.08-.072-.159-.106-.04-.036-.078-.034-.118-.07-.04-.037-.117-.033-.157-.069-.235-.102-.582-.16-1.044-.213a.782.782 0 0 0-.42.022c-.114.006-.188.048-.263.09-.112.045-.142.2-.134.352z"/></g></g><g opacity=".8"><g opacity=".8"><path fill="#34404b" d="M4.81 11.418c.04.036.078.034.118.07.04.036.042.074.044.112.002.039-.032.117-.028.193-.034.079-.068.157-.139.275-.106.159-.176.277-.285.398-.07.118-.18.2-.253.281-.146.122-.259.167-.333.209l.102-.235c.07-.119.137-.313.243-.472.107-.159.175-.315.245-.434.037-.04.07-.118.107-.158l.036-.04-.036.04-.109.12c-.07.119-.176.277-.283.436-.106.158-.174.315-.243.472-.07.118-.102.235-.102.235-.04-.037-.087-.187-.058-.38-.006-.114.028-.193.058-.347.032-.117.1-.273.207-.432.142-.199.289-.321.401-.366.115-.006.23-.012.308.023z"/></g><g opacity=".8"><path fill="#34404b" d="M1.396 12.706c-.03.155.016.305.139.452.122.147.319.251.666.31.117.032.23.026.347.058l.267-.014c.153-.008.304-.054.416-.099.225-.088.333-.208.37-.248 0 0-.115.006-.308-.023-.038.002-.076.004-.154-.03-.038.002-.117-.032-.155-.03-.116-.032-.23-.026-.347-.058a3.224 3.224 0 0 1-.659-.157c-.194-.066-.31-.099-.31-.099s.116.033.308.06c.193.029.426.093.657.12.23.026.462.052.654.08.193.028.308.022.308.022-.04-.036-.043-.074-.12-.108-.041-.037-.121-.109-.24-.18-.198-.142-.512-.278-.975-.369-.312-.098-.502-.088-.653-.042-.11.082-.18.2-.21.355z"/></g></g><g opacity=".8"><g opacity=".8"><path fill="#34404b" d="M4.41 10.367c.079.034.12.109.089.225a.29.29 0 0 1-.069.157c-.034.078-.106.158-.178.239-.109.12-.217.24-.328.323-.11.082-.183.163-.257.205-.148.084-.299.13-.337.132l.036-.04c.036-.04.072-.08.106-.159.07-.118.177-.277.324-.4.106-.158.253-.28.325-.36.11-.083.145-.161.145-.161l-.145.16c-.11.083-.217.241-.325.362-.109.12-.253.281-.324.4-.036.04-.07.118-.108.12l-.036.04c-.002-.038-.048-.189.02-.345.028-.193.169-.43.424-.673.182-.163.331-.247.444-.291 0 0 .116.032.194.066z"/></g><g opacity=".8"><path fill="#34404b" d="M.925 11.01a.485.485 0 0 0 .062.455c.04.036.042.074.082.11l.12.109c.08.072.2.143.354.173.235.102.427.13.58.122.155.03.307.022.42-.022.227-.05.375-.134.411-.174 0 0-.038.002-.078-.034-.038.002-.116-.033-.195-.067-.078-.034-.194-.066-.273-.1-.04-.036-.116-.032-.156-.069-.04-.036-.117-.032-.157-.068-.116-.032-.235-.102-.313-.137-.117-.032-.197-.104-.275-.138-.157-.068-.275-.139-.275-.139s.116.032.275.139c.078.034.195.066.273.1.116.032.233.065.313.137.233.064.428.13.622.197.079.034.155.03.195.066.038-.002.078.034.078.034-.002-.038-.042-.074-.084-.148a1.009 1.009 0 0 0-.203-.22c-.08-.071-.2-.18-.357-.248-.078-.034-.158-.107-.237-.14-.078-.035-.197-.105-.275-.14-.275-.138-.468-.166-.62-.158-.149.084-.257.204-.287.36z"/></g></g><g opacity=".8"><g opacity=".8"><path fill="#34404b" d="M4.162 9.27c.04.037.042.075.082.111l.006.115c-.034.078-.143.198-.325.361-.147.122-.258.205-.37.249a.61.61 0 0 1-.3.13 1.68 1.68 0 0 1-.34.057l.144-.161c.036-.04.11-.082.183-.163.074-.042.146-.122.183-.162a.834.834 0 0 0 .182-.163c.075-.042.11-.082.185-.124.11-.083.185-.125.185-.125s-.074.042-.185.125c-.036.04-.11.082-.185.124-.074.042-.146.123-.22.165a4.382 4.382 0 0 0-.366.325c-.11.082-.183.163-.183.163l-.006-.115c-.002-.038-.004-.076.032-.116-.002-.039.035-.079.033-.117.034-.078.106-.158.176-.277.073-.08.181-.2.33-.285.184-.124.335-.17.45-.177.15-.046.266-.014.309.06z"/></g><g opacity=".8"><path fill="#34404b" d="M.754 9.22c-.034.078-.07.118-.066.194l.006.115c.002.038.004.076.044.112.042.075.084.149.167.26.08.072.162.182.319.25.197.105.393.21.548.24.155.03.271.062.386.056.228-.012.379-.058.415-.098 0 0-.116-.032-.237-.14a3.072 3.072 0 0 1-.552-.316.53.53 0 0 0-.158-.107l-.12-.108c-.081-.073-.16-.107-.24-.18-.078-.033-.12-.108-.16-.144-.04-.036-.079-.034-.079-.034s.039-.002.079.034c.04.036.118.07.158.107.079.034.159.106.237.14.08.073.197.105.277.177.119.07.197.105.277.177.04.036.079.034.119.07.04.036.078.034.118.07l.235.103c-.004-.076-.086-.187-.21-.371-.04-.037-.083-.11-.123-.147-.04-.036-.082-.11-.16-.145-.043-.074-.121-.108-.201-.18-.08-.073-.16-.107-.24-.18-.238-.178-.433-.244-.586-.236-.072.08-.182.162-.253.28z"/></g></g><g opacity=".8"><g opacity=".8"><path fill="#34404b" d="M4.14 8.124c.04.036.042.074.044.112.002.039.004.077-.032.117l-.109.12-.223.127c-.297.168-.522.257-.712.267-.19.048-.306.016-.346-.02 0 0 .075-.043.185-.125a4.16 4.16 0 0 1 .408-.25l.222-.127c.075-.042.15-.085.187-.087.075-.042.113-.044.149-.084.038-.002.036-.04.036-.04s-.074.042-.187.086a3.718 3.718 0 0 0-.41.213 4.16 4.16 0 0 0-.407.251c-.074.042-.11.082-.149.084-.038.002-.036.04-.036.04-.002-.038-.004-.076.032-.116a.837.837 0 0 0 .105-.197c.036-.04.072-.08.07-.118l.109-.12c.11-.083.22-.165.371-.212.187-.086.376-.134.492-.102a.461.461 0 0 1 .2.181z"/></g><g opacity=".8"><path fill="#34404b" d="M.893 7.49c-.07.12-.14.238-.092.426.004.077.046.15.128.261.04.037.082.11.123.147.04.036.082.11.16.145.16.144.32.25.476.32.157.067.273.1.39.132.23.026.345.02.421.016l-.2-.18-.442-.399c-.16-.144-.321-.289-.444-.435-.12-.109-.203-.22-.203-.22l.201.181.442.398c.16.145.36.287.478.358.078.034.118.07.158.106.04.036.078.034.078.034-.004-.076-.01-.19-.136-.413-.086-.187-.291-.444-.574-.736l-.281-.253c-.08-.072-.159-.106-.235-.102-.227.05-.34.094-.448.215z"/></g></g><g opacity=".8"><g opacity=".8"><path fill="#34404b" d="M4.347 6.965c.042.075.046.15-.027.231-.072.08-.184.125-.371.211-.301.092-.566.144-.72.114a.645.645 0 0 1-.348-.058s.074-.042.187-.086c.112-.044.26-.129.45-.177.074-.042.15-.046.224-.088.075-.042.15-.046.19-.048a.668.668 0 0 1 .188-.049s-.076.004-.189.049c-.076.004-.112.044-.227.05a.542.542 0 0 0-.225.088l-.452.139c-.074.042-.112.044-.15.046l-.038.002c-.002-.038.068-.157.176-.277.037-.04.073-.08.11-.083.037-.04.073-.08.15-.084.112-.044.222-.127.375-.135.227-.05.341-.056.458-.024.154.03.196.105.239.18z"/></g><g opacity=".8"><path fill="#34404b" d="M1.34 5.784c-.037.04-.073.08-.107.158a.344.344 0 0 0-.028.193c.004.076.008.153.052.265a.675.675 0 0 0 .207.295c.246.332.524.509.718.575.195.066.348.058.386.056 0 0-.002-.038-.04-.036a.529.529 0 0 1-.123-.146c-.12-.109-.245-.294-.367-.44-.04-.037-.08-.073-.082-.11-.04-.037-.043-.075-.083-.111-.042-.075-.122-.147-.164-.221-.085-.149-.165-.221-.165-.221s.042.074.165.22c.042.075.122.147.164.222.042.074.123.146.205.257.122.146.285.33.367.44.042.074.083.11.123.146l.04.036c-.004-.076.028-.192-.06-.417-.002-.038-.044-.113-.046-.15-.043-.075-.045-.113-.087-.188-.084-.148-.168-.297-.29-.444-.165-.22-.288-.367-.404-.4-.157-.068-.271-.062-.382.02z"/></g></g><g opacity=".8"><g opacity=".8"><path fill="#34404b" d="M4.747 5.835c.004.076.008.152-.067.194-.036.04-.074.043-.148.085-.077.004-.15.046-.265.052l-.42.022c-.114.006-.23-.026-.307-.022a.73.73 0 0 1-.313-.137l.038-.002a.289.289 0 0 0 .15-.046c.113-.044.265-.052.454-.1.153-.008.303-.054.418-.06l.19-.01-.19.01a2.193 2.193 0 0 0-.456.062c-.153.008-.303.054-.456.062-.114.006-.189.048-.189.048s-.002-.038.037-.04l.036-.04c.036-.04.072-.08.146-.123.075-.042.149-.084.261-.128.113-.044.227-.05.418-.06.19-.01.345.02.462.052.116.032.197.104.2.18z"/></g><g opacity=".8"><path fill="#34404b" d="M2.099 4.213a.475.475 0 0 0-.213.318c.004.076-.03.154.014.267.006.114.05.227.132.337.086.187.209.334.291.444.082.11.2.18.281.253a.75.75 0 0 0 .352.135s-.002-.038-.043-.075c-.04-.036-.042-.074-.084-.148a3.095 3.095 0 0 1-.255-.484c-.086-.187-.172-.374-.257-.522a1.238 1.238 0 0 0-.088-.225s.044.112.126.223a7.5 7.5 0 0 1 .257.522c.087.187.209.333.293.482.042.074.083.11.085.148.04.037.042.075.042.075-.002-.038.034-.078.03-.155l-.014-.267c-.01-.19-.102-.492-.275-.866-.044-.112-.126-.222-.169-.297-.042-.074-.122-.146-.16-.144a.371.371 0 0 0-.345-.02z"/></g></g><g opacity=".8"><g opacity=".8"><path fill="#34404b" d="M5.345 4.847a.21.21 0 0 1-.104.197c-.038.002-.075.042-.151.046l-.229.012c-.152.008-.269-.024-.385-.057-.117-.032-.195-.066-.271-.062a.95.95 0 0 1-.277-.177l.038-.002.152-.008c.115-.006.267-.014.422.016.153-.008.307.023.422.017a.464.464 0 0 1 .192.028s-.076.004-.192-.028c-.117-.033-.27-.025-.424-.055-.153.008-.307-.022-.422-.016l-.19.01s-.002-.038.036-.04l.036-.04a.292.292 0 0 1 .187-.086c.074-.043.15-.047.263-.09.114-.007.229-.013.381-.02.193.027.348.058.428.13a.41.41 0 0 1 .088.225z"/></g><g opacity=".8"><path fill="#34404b" d="M3.135 2.82c-.113.044-.223.126-.253.281a.484.484 0 0 0-.026.231c.006.114.012.229.056.341.048.19.132.338.215.448.082.11.164.221.206.296.16.144.277.176.318.213 0 0-.002-.039-.043-.075-.002-.038-.044-.112-.046-.15-.046-.151-.094-.34-.18-.527-.049-.188-.097-.377-.143-.528-.046-.15-.052-.265-.052-.265s.006.115.05.227c.046.15.094.34.143.528.048.189.134.376.178.488.042.075.044.113.085.149.002.038.042.074.042.074.036-.04.068-.156.094-.387.028-.193.014-.46-.082-.838-.044-.112-.05-.227-.092-.301-.043-.074-.085-.149-.125-.185-.116-.032-.233-.064-.345-.02z"/></g></g><g opacity=".8"><g opacity=".8"><path fill="#34404b" d="M6.138 3.925c.004.077-.032.117-.144.16l-.077.005-.076.004c-.076.004-.154-.03-.23-.026a2.372 2.372 0 0 1-.625-.235c-.119-.07-.2-.181-.241-.217 0 0 .076-.004.193.028.116.032.27.062.425.092.155.03.271.063.388.095.116.032.195.066.195.066s-.079-.034-.195-.066c-.038.002-.117-.032-.195-.067-.078-.034-.154-.03-.195-.066-.154-.03-.309-.06-.425-.092-.038.002-.117-.033-.155-.03l-.038.001c.036-.04.11-.082.261-.128.076-.004.15-.046.267-.014.115-.006.231.026.386.056.194.067.313.137.355.211.118.07.122.147.126.223z"/></g><g opacity=".8"><path fill="#34404b" d="M4.374 1.645c-.114.006-.225.089-.295.207-.034.079-.07.119-.064.233.004.076-.029.193.018.344.058.38.146.604.268.75.123.147.203.22.281.254 0 0-.004-.076-.05-.227-.008-.153-.056-.342-.066-.532l-.028-.535-.012-.228.012.228.012.23.008.152.008.153c.01.19.058.38.102.492.004.076.045.112.047.15l.004.077a.715.715 0 0 0 .134-.352c-.002-.038.032-.116.03-.154-.002-.039.032-.117.028-.193.033-.117.023-.307.013-.498-.006-.115-.012-.23-.055-.303a.292.292 0 0 0-.086-.187.72.72 0 0 0-.309-.06z"/></g></g><g opacity=".8"><g opacity=".8"><path fill="#34404b" d="M7.056 3.188c-.03.155-.18.201-.534.028a1.605 1.605 0 0 1-.554-.353c-.12-.109-.163-.183-.165-.221l.039-.002c.038-.002.078.034.116.032.116.032.235.102.39.133.078.034.118.07.194.066.078.034.119.07.157.068l.156.069-.156-.069a.29.29 0 0 0-.157-.068c-.078-.034-.118-.07-.196-.105-.274-.1-.549-.239-.549-.239.037-.04.151-.046.265-.052a.746.746 0 0 1 .27.024c.116.033.232.065.35.135a.725.725 0 0 1 .32.251c.084.149.088.225.054.303z"/></g><g opacity=".8"><path fill="#34404b" d="M5.78.73a.434.434 0 0 0-.3.13.835.835 0 0 0-.104.197.719.719 0 0 0-.06.31c-.019.383.032.61.116.759.084.148.167.259.207.295l-.004-.076-.008-.153c-.006-.115.022-.307.012-.498L5.63 1.54c-.002-.038-.004-.076.032-.116-.004-.076.03-.155.026-.231.03-.155.026-.231.026-.231s.004.076-.026.23c.004.077-.03.156-.026.232.004.076-.028.193-.024.269-.018.383 0 .727 0 .727.036-.04.108-.12.215-.28.036-.04.034-.078.068-.156.036-.04.032-.116.068-.156.032-.117.063-.272.09-.464-.005-.115.027-.231.023-.308C6.099.981 6.095.905 6.055.87 6.01.756 5.894.724 5.78.73z"/></g></g></g></svg>