<svg xmlns="http://www.w3.org/2000/svg" width="6" height="13" viewBox="0 0 6 13"><g><g opacity=".8"><path fill="#34404b" d="M.699 12.49a.29.29 0 0 1 .158-.065c.04-.035.12-.068.16-.104.12-.068.237-.098.319-.17.04-.035.12-.068.16-.103.041-.036.12-.069.16-.104.442-.276.891-.667 1.302-1.06.206-.216.413-.432.585-.688.084-.11.17-.257.255-.366.084-.11.171-.257.258-.404.172-.257.307-.554.44-.813.136-.298.231-.56.33-.86l.053-.226c.006-.077.05-.15.054-.227l.047-.112.008-.114c.005-.077.048-.15.054-.227.06-.302.08-.608.102-.913a12603.63 12603.63 0 0 0 .032-.459l.016-.229c.005-.076.01-.152-.022-.231l.008-.115.008-.115c.005-.076-.028-.155-.022-.231.005-.077-.028-.156-.022-.232.005-.076-.028-.155-.022-.232a9.942 9.942 0 0 0-.46-1.643 6.237 6.237 0 0 0-.71-1.355C3.43.29 2.854-.25 2.46-.623l-.072-.082c-.038-.003-.035-.04-.074-.044-.035-.04-.109-.084-.144-.125a.8.8 0 0 0-.218-.169c-.11-.084-.183-.127-.183-.127s.074.043.183.127a.8.8 0 0 1 .218.17c.035.04.07.08.147.086.038.003.036.041.074.044l.07.081c.437.338 1.01.915 1.567 1.721.279.404.516.842.749 1.357.032.08.068.12.063.197-.003.038.032.079.032.079-.002.038.033.079.03.117.03.117.096.275.126.392.028.156.058.273.124.431-.003.038.032.08.03.117-.003.038.033.08.03.117.033.08.027.156.06.235-.005.076.028.155.022.232l.03.117.03.117c-.005.076.028.155.023.232-.006.076.027.155.022.232l-.008.114-.008.115c-.006.076-.01.152.022.231-.01.153.017.309-.032.459-.022.305-.046.649-.105.952-.06.302-.122.643-.22.943l-.092.224-.092.224c-.043.074-.049.15-.092.224-.044.073-.05.15-.093.223-.135.298-.271.595-.443.852-.171.257-.345.551-.552.767a.67.67 0 0 1-.166.18c-.04.036-.043.074-.081.071l-.082.071a.673.673 0 0 1-.166.18c-.043.074-.122.107-.166.18-.207.217-.451.43-.655.607-.243.175-.447.353-.686.49l-.72.41c-.119.068-.238.136-.356.167-.087.147.014-.191.093-.224z"/></g></g></svg>